<?xml version="1.0" standalone="no"?>
<!DOCTYPE svg PUBLIC "-//W3C//DTD SVG 20010904//EN"
 "http://www.w3.org/TR/2001/REC-SVG-20010904/DTD/svg10.dtd">
<svg version="1.0" xmlns="http://www.w3.org/2000/svg"
 width="329.000000pt" height="329.000000pt" viewBox="0 0 329.000000 329.000000"
 preserveAspectRatio="xMidYMid meet">
<metadata>
Created by potrace 1.11, written by Peter Selinger 2001-2013
</metadata>
<g transform="translate(0.000000,329.000000) scale(0.100000,-0.100000)"
fill="#000000" stroke="none">
<path d="M78 3278 c-9 -7 -21 -24 -26 -38 -4 -14 -8 -446 -7 -960 1 -1012 -1
-971 54 -985 14 -4 288 -6 610 -5 322 1 591 1 596 1 7 -1 10 -210 9 -614 0
-660 -1 -658 52 -671 50 -13 1152 -5 1249 9 329 47 473 147 560 386 13 38 23
69 20 69 -2 0 1 15 6 33 5 17 12 50 14 71 2 21 7 55 10 75 21 152 21 656 0
770 -1 9 -6 36 -9 61 -31 201 -133 352 -288 425 -154 73 -291 92 -676 94 -145
1 -269 4 -277 7 -9 4 -12 20 -10 57 5 71 5 491 0 547 -15 172 -35 259 -80 356
-74 160 -222 260 -434 295 -36 6 -79 13 -96 16 -16 3 -307 8 -645 10 -497 3
-618 2 -632 -9z m962 -638 c19 -19 20 -33 20 -347 0 -181 -4 -333 -8 -340 -10
-15 -57 -33 -88 -33 l-24 0 0 370 0 370 40 0 c27 0 47 -7 60 -20z m1270 -1290
c19 -19 20 -33 20 -348 0 -255 -3 -332 -13 -346 -9 -12 -29 -19 -60 -21 l-47
-3 0 369 0 369 40 0 c27 0 47 -7 60 -20z"/>
</g>
</svg>
